<svg height="512pt" viewBox="0 -9 512 512" width="512pt" xmlns="http://www.w3.org/2000/svg"><path d="m298.667969 384v-8.535156h-85.335938v8.535156c0 37.734375-13.464843 68.265625-51.199219 68.265625v17.066406h187.734376v-17.066406c-37.734376 0-51.199219-30.53125-51.199219-68.265625zm0 0" fill="#e7eced"/><path d="m435.199219 8.535156h-401.058594c-14.136719 0-25.605469 11.46875-25.605469 25.605469v290.125h494.929688v-290.125c0-14.136719-11.46875-25.605469-25.605469-25.605469zm0 0" fill="#e7eced"/><path d="m42.667969 42.667969h426.664062v273.066406h-426.664062zm0 0" fill="#ebba16"/><path d="m477.859375 384h-443.71875c-14.136719 0-25.605469-11.46875-25.605469-25.609375v-42.65625h494.929688v42.65625c0 14.140625-11.46875 25.609375-25.605469 25.609375zm0 0" fill="#afb6bb"/><path d="m366.933594 486.398438h-221.867188c-9.429687 0-17.066406-7.636719-17.066406-17.066407 0-9.429687 7.636719-17.066406 17.066406-17.066406h221.867188c9.429687 0 17.066406 7.636719 17.066406 17.066406 0 9.429688-7.636719 17.066407-17.066406 17.066407zm0 0" fill="#afb6bb"/><path d="m256 213.332031-102.398438-48.1875v65.253907l102.398438 51.203124 102.398438-51.203124v-65.253907zm0 0" fill="#32597f"/><path d="m256 76.800781-145.066406 68.265625 145.066406 68.265625 145.066406-68.265625zm0 0" fill="#366db6"/><g fill="#4d007e"><path d="m256 221.867188c-1.246094 0-2.484375-.273438-3.636719-.8125l-145.066406-68.265626c-2.984375-1.40625-4.898437-4.421874-4.898437-7.722656 0-3.300781 1.914062-6.3125 4.898437-7.722656l145.066406-68.265625c2.304688-1.085937 4.96875-1.085937 7.273438 0l145.066406 68.265625c2.984375 1.410156 4.898437 4.421875 4.898437 7.722656 0 3.300782-1.914062 6.316406-4.898437 7.722656l-145.066406 68.265626c-1.152344.539062-2.390625.8125-3.636719.8125zm-125.023438-76.800782 125.023438 58.835938 125.023438-58.835938-125.023438-58.835937zm0 0"/><path d="m256 290.132812c-1.304688 0-2.621094-.296874-3.8125-.894531l-102.402344-51.199219c-2.890625-1.453124-4.71875-4.40625-4.71875-7.640624v-65.253907c0-2.917969 1.492188-5.640625 3.960938-7.199219 2.464844-1.570312 5.5625-1.75 8.199218-.523437l98.773438 46.480469 98.765625-46.480469c2.644531-1.234375 5.742187-1.046875 8.199219.523437 2.476562 1.558594 3.96875 4.28125 3.96875 7.199219v65.253907c0 3.234374-1.828125 6.1875-4.71875 7.640624l-102.402344 51.199219c-1.191406.597657-2.507812.894531-3.8125.894531zm-93.867188-65.007812 93.867188 46.933594 93.867188-46.933594v-46.53125l-90.230469 42.460938c-2.304688 1.085937-4.96875 1.085937-7.273438 0l-90.230469-42.460938zm0 0"/><path d="m401.066406 153.601562h-145.066406c-4.710938 0-8.535156-3.824218-8.535156-8.535156 0-4.710937 3.824218-8.53125 8.535156-8.53125h145.066406c4.710938 0 8.535156 3.820313 8.535156 8.53125 0 4.710938-3.824218 8.535156-8.535156 8.535156zm0 0"/><path d="m401.066406 230.398438c-4.710937 0-8.53125-3.820313-8.53125-8.53125v-76.800782c0-4.710937 3.820313-8.53125 8.53125-8.53125 4.710938 0 8.535156 3.820313 8.535156 8.53125v76.800782c0 4.710937-3.824218 8.53125-8.535156 8.53125zm0 0"/><path d="m256 170.667969c-4.710938 0-8.535156-3.824219-8.535156-8.535157v-34.132812c0-4.710938 3.824218-8.535156 8.535156-8.535156s8.535156 3.824218 8.535156 8.535156v34.132812c0 4.710938-3.824218 8.535157-8.535156 8.535157zm0 0"/><path d="m383.992188 256c-1.621094 0-3.269532-.460938-4.726563-1.433594-3.917969-2.609375-4.976563-7.910156-2.367187-11.835937l17.070312-25.601563c2.609375-3.921875 7.898438-4.992187 11.832031-2.363281 3.917969 2.613281 4.976563 7.910156 2.367188 11.835937l-17.066407 25.601563c-1.648437 2.464844-4.355468 3.796875-7.109374 3.796875zm0 0"/><path d="m418.140625 256c-2.753906 0-5.460937-1.332031-7.105469-3.796875l-17.066406-25.601563c-2.613281-3.914062-1.554688-9.222656 2.363281-11.835937 3.914063-2.628906 9.214844-1.558594 11.835938 2.363281l17.066406 25.601563c2.609375 3.917969 1.550781 9.226562-2.363281 11.835937-1.460938.972656-3.109375 1.433594-4.730469 1.433594zm0 0"/><path d="m256 247.464844c-4.710938 0-8.535156-3.820313-8.535156-8.53125v-25.601563c0-4.710937 3.824218-8.53125 8.535156-8.53125s8.535156 3.820313 8.535156 8.53125v25.601563c0 4.710937-3.824218 8.53125-8.535156 8.53125zm0 0"/><path d="m503.464844 324.265625h-494.929688c-4.710937 0-8.535156-3.820313-8.535156-8.53125v-281.59375c0-18.824219 15.316406-34.140625 34.140625-34.140625h443.71875c18.824219 0 34.140625 15.316406 34.140625 34.140625v281.59375c0 4.710937-3.824219 8.53125-8.535156 8.53125zm-486.398438-17.066406h477.867188v-273.058594c0-9.417969-7.65625-17.074219-17.074219-17.074219h-443.71875c-9.417969 0-17.074219 7.65625-17.074219 17.074219zm0 0"/><path d="m477.859375 392.535156h-443.71875c-18.824219 0-34.140625-15.320312-34.140625-34.144531v-42.65625c0-4.710937 3.824219-8.535156 8.535156-8.535156h494.929688c4.710937 0 8.535156 3.824219 8.535156 8.535156v42.65625c0 18.824219-15.316406 34.144531-34.140625 34.144531zm-460.792969-68.269531v34.125c0 9.421875 7.65625 17.074219 17.074219 17.074219h443.71875c9.417969 0 17.074219-7.652344 17.074219-17.074219v-34.125zm0 0"/><path d="m281.601562 358.398438h-51.203124c-4.707032 0-8.53125-3.820313-8.53125-8.53125 0-4.710938 3.824218-8.535157 8.53125-8.535157h51.203124c4.707032 0 8.53125 3.824219 8.53125 8.535157 0 4.710937-3.824218 8.53125-8.53125 8.53125zm0 0"/><path d="m469.332031 324.265625h-426.664062c-4.710938 0-8.535157-3.820313-8.535157-8.53125v-273.066406c0-4.710938 3.824219-8.535157 8.535157-8.535157h426.664062c4.710938 0 8.535157 3.824219 8.535157 8.535157v273.066406c0 4.710937-3.824219 8.53125-8.535157 8.53125zm-418.132812-17.066406h409.601562v-256h-409.601562zm0 0"/><path d="m366.933594 494.933594h-221.867188c-14.113281 0-25.601562-11.484375-25.601562-25.601563 0-14.113281 11.488281-25.597656 25.601562-25.597656h221.867188c14.113281 0 25.601562 11.484375 25.601562 25.597656 0 14.117188-11.488281 25.601563-25.601562 25.601563zm-221.867188-34.132813c-4.703125 0-8.53125 3.832031-8.53125 8.53125 0 4.703125 3.828125 8.535157 8.53125 8.535157h221.867188c4.703125 0 8.53125-3.832032 8.53125-8.535157 0-4.699219-3.828125-8.53125-8.53125-8.53125zm0 0"/><path d="m349.867188 460.800781h-187.734376c-4.710937 0-8.53125-3.824219-8.53125-8.535156s3.820313-8.53125 8.53125-8.53125c28.3125 0 42.667969-20.097656 42.667969-59.734375 0-4.710938 3.820313-8.535156 8.53125-8.535156h85.335938c4.710937 0 8.53125 3.824218 8.53125 8.535156 0 39.636719 14.355469 59.734375 42.667969 59.734375 4.710937 0 8.53125 3.820313 8.53125 8.53125s-3.820313 8.535156-8.53125 8.535156zm-146.167969-17.066406h104.609375c-10.511719-11.640625-16.699219-28.972656-17.9375-51.199219h-68.734375c-1.246094 22.226563-7.425781 39.558594-17.9375 51.199219zm0 0"/></g></svg>